<?xml version="1.0" encoding="UTF-8"?> <svg xmlns="http://www.w3.org/2000/svg" width="1583" height="784" viewBox="0 0 1583 784" fill="none"> <rect width="1582" height="782" fill="#2A327D"></rect> <rect width="46.9249" height="112.335" transform="matrix(0.713401 -0.700757 0.713401 0.700757 1313.83 680.28)" fill="white"></rect> <rect width="46.9249" height="130.091" transform="matrix(0.713401 0.700757 -0.713401 0.700757 1548.66 634.955)" fill="white"></rect> <rect width="46.9249" height="112.335" transform="matrix(0.713401 -0.700757 0.713401 0.700757 1408.51 680.28)" fill="white"></rect> <rect width="46.9249" height="112.335" transform="matrix(0.713401 0.700757 -0.713401 0.700757 1441.31 647.397)" fill="white"></rect> <rect width="46.9249" height="112.335" transform="matrix(0.713401 -0.700757 0.713401 0.700757 1219 680.142)" fill="white"></rect> <rect width="46.9249" height="112.335" transform="matrix(0.713401 0.700757 -0.713401 0.700757 1346.62 647.397)" fill="white"></rect> <rect width="66.3188" height="19.9075" transform="matrix(0.713401 0.700757 -0.713401 0.700757 1266.34 633.305)" fill="#CF1A23"></rect> <rect width="66.3188" height="19.9075" transform="matrix(0.713401 0.700757 -0.713401 0.700757 1455.71 633.305)" fill="#CF1A23"></rect> <rect width="66.3188" height="19.9075" transform="matrix(0.713401 0.700757 -0.713401 0.700757 1361.02 633.305)" fill="#CF1A23"></rect> <path d="M123.695 260.471L169.857 260.471L169.857 393.721C169.857 393.721 242.258 397.061 276.343 377.884C313.378 357.047 329.355 295.651 329.355 295.651L368.655 305.319L313.004 496L123.695 445.947L123.695 260.471Z" fill="white"></path> <path d="M150.014 141.423C189.8 141.423 227.956 154.122 256.089 176.728C284.222 199.333 300.027 229.992 300.027 261.961C300.027 293.93 284.222 324.59 256.089 347.195C227.956 369.801 189.8 382.5 150.014 382.5L150.014 261.961L150.014 141.423Z" fill="#CF1A23"></path> <path d="M186.704 251.68L256.357 91.7835L320.668 131.142L186.704 251.68Z" fill="white"></path> <path d="M463.923 649.693L491.047 649.693L444.64 778.307L419 778.307L463.923 649.693Z" fill="white"></path> <path d="M645.877 649.693L673 649.693L626.593 778.307L600.953 778.307L645.877 649.693Z" fill="white"></path> <path d="M600.388 649.693L627.512 649.693L581.105 778.307L555.465 778.307L600.388 649.693Z" fill="white"></path> <path d="M554.9 649.693L582.023 649.693L535.617 778.307L509.977 778.307L554.9 649.693Z" fill="white"></path> <path d="M509.412 649.693L536.535 649.693L490.128 778.307L464.488 778.307L509.412 649.693Z" fill="white"></path> </svg> 