<svg width="254" height="53" viewBox="0 0 254 53" fill="none" xmlns="http://www.w3.org/2000/svg">
<rect width="254" height="53" rx="20" fill="#CF1A23"/>
<path d="M56.05 20.4V33H53.152V22.776H47.464V33H44.566V20.4H56.05ZM64.6634 23.172C65.5634 23.172 66.3794 23.382 67.1114 23.802C67.8554 24.21 68.4374 24.792 68.8574 25.548C69.2774 26.292 69.4874 27.162 69.4874 28.158C69.4874 29.154 69.2774 30.03 68.8574 30.786C68.4374 31.53 67.8554 32.112 67.1114 32.532C66.3794 32.94 65.5634 33.144 64.6634 33.144C63.4274 33.144 62.4554 32.754 61.7474 31.974V36.492H58.9394V23.316H61.6214V24.432C62.3174 23.592 63.3314 23.172 64.6634 23.172ZM64.1774 30.84C64.8974 30.84 65.4854 30.6 65.9414 30.12C66.4094 29.628 66.6434 28.974 66.6434 28.158C66.6434 27.342 66.4094 26.694 65.9414 26.214C65.4854 25.722 64.8974 25.476 64.1774 25.476C63.4574 25.476 62.8634 25.722 62.3954 26.214C61.9394 26.694 61.7114 27.342 61.7114 28.158C61.7114 28.974 61.9394 29.628 62.3954 30.12C62.8634 30.6 63.4574 30.84 64.1774 30.84ZM71.4555 23.316H74.2455V29.076L78.9615 23.316H81.5355V33H78.7455V27.24L74.0475 33H71.4555V23.316ZM84.2348 23.316H87.0248V27.096H91.2368V23.316H94.0448V33H91.2368V29.382H87.0248V33H84.2348V23.316ZM105.337 23.316V33H102.835V30.228H100.765L98.9288 33H95.9408L98.1548 29.832C97.4828 29.568 96.9668 29.19 96.6068 28.698C96.2588 28.194 96.0848 27.588 96.0848 26.88C96.0848 25.74 96.4928 24.864 97.3088 24.252C98.1368 23.628 99.2708 23.316 100.711 23.316H105.337ZM100.765 25.602C100.165 25.602 99.7088 25.71 99.3968 25.926C99.0968 26.142 98.9468 26.49 98.9468 26.97C98.9468 27.45 99.0908 27.804 99.3788 28.032C99.6788 28.248 100.129 28.356 100.729 28.356H102.835V25.602H100.765ZM116.172 25.62H112.896V33H110.106V25.62H106.83V23.316H116.172V25.62ZM122.906 26.412C124.166 26.424 125.132 26.712 125.804 27.276C126.476 27.828 126.812 28.614 126.812 29.634C126.812 30.702 126.434 31.536 125.678 32.136C124.934 32.724 123.884 33.018 122.528 33.018L117.668 33V23.316H120.458V26.412H122.906ZM122.276 31.02C122.816 31.032 123.23 30.918 123.518 30.678C123.806 30.438 123.95 30.078 123.95 29.598C123.95 29.13 123.806 28.788 123.518 28.572C123.242 28.356 122.828 28.242 122.276 28.23L120.458 28.212V31.02H122.276ZM143.366 23.316L138.992 33.594C138.548 34.71 137.996 35.496 137.336 35.952C136.688 36.408 135.902 36.636 134.978 36.636C134.474 36.636 133.976 36.558 133.484 36.402C132.992 36.246 132.59 36.03 132.278 35.754L133.304 33.756C133.52 33.948 133.766 34.098 134.042 34.206C134.33 34.314 134.612 34.368 134.888 34.368C135.272 34.368 135.584 34.272 135.824 34.08C136.064 33.9 136.28 33.594 136.472 33.162L136.508 33.072L132.314 23.316H135.212L137.93 29.886L140.666 23.316H143.366ZM153.433 23.316V33H150.625V29.4C149.809 29.808 148.909 30.012 147.925 30.012C146.617 30.012 145.627 29.718 144.955 29.13C144.295 28.53 143.965 27.606 143.965 26.358V23.316H146.773V26.178C146.773 26.766 146.923 27.192 147.223 27.456C147.535 27.72 147.979 27.852 148.555 27.852C149.287 27.852 149.977 27.696 150.625 27.384V23.316H153.433ZM159.891 23.172C161.391 23.172 162.543 23.532 163.347 24.252C164.151 24.96 164.553 26.034 164.553 27.474V33H161.925V31.794C161.397 32.694 160.413 33.144 158.973 33.144C158.229 33.144 157.581 33.018 157.029 32.766C156.489 32.514 156.075 32.166 155.787 31.722C155.499 31.278 155.355 30.774 155.355 30.21C155.355 29.31 155.691 28.602 156.363 28.086C157.047 27.57 158.097 27.312 159.513 27.312H161.745C161.745 26.7 161.559 26.232 161.187 25.908C160.815 25.572 160.257 25.404 159.513 25.404C158.997 25.404 158.487 25.488 157.983 25.656C157.491 25.812 157.071 26.028 156.723 26.304L155.715 24.342C156.243 23.97 156.873 23.682 157.605 23.478C158.349 23.274 159.111 23.172 159.891 23.172ZM159.675 31.254C160.155 31.254 160.581 31.146 160.953 30.93C161.325 30.702 161.589 30.372 161.745 29.94V28.95H159.819C158.667 28.95 158.091 29.328 158.091 30.084C158.091 30.444 158.229 30.732 158.505 30.948C158.793 31.152 159.183 31.254 159.675 31.254ZM171.601 33.144C170.569 33.144 169.639 32.934 168.811 32.514C167.995 32.082 167.353 31.488 166.885 30.732C166.429 29.976 166.201 29.118 166.201 28.158C166.201 27.198 166.429 26.34 166.885 25.584C167.353 24.828 167.995 24.24 168.811 23.82C169.639 23.388 170.569 23.172 171.601 23.172C172.621 23.172 173.509 23.388 174.265 23.82C175.033 24.24 175.591 24.846 175.939 25.638L173.761 26.808C173.257 25.92 172.531 25.476 171.583 25.476C170.851 25.476 170.245 25.716 169.765 26.196C169.285 26.676 169.045 27.33 169.045 28.158C169.045 28.986 169.285 29.64 169.765 30.12C170.245 30.6 170.851 30.84 171.583 30.84C172.543 30.84 173.269 30.396 173.761 29.508L175.939 30.696C175.591 31.464 175.033 32.064 174.265 32.496C173.509 32.928 172.621 33.144 171.601 33.144ZM185.746 25.62H182.47V33H179.68V25.62H176.404V23.316H185.746V25.62ZM187.243 23.316H190.033V29.076L194.749 23.316H197.323V33H194.533V27.24L189.835 33H187.243V23.316ZM209.436 28.194C209.436 28.23 209.418 28.482 209.382 28.95H202.056C202.188 29.55 202.5 30.024 202.992 30.372C203.484 30.72 204.096 30.894 204.828 30.894C205.332 30.894 205.776 30.822 206.16 30.678C206.556 30.522 206.922 30.282 207.258 29.958L208.752 31.578C207.84 32.622 206.508 33.144 204.756 33.144C203.664 33.144 202.698 32.934 201.858 32.514C201.018 32.082 200.37 31.488 199.914 30.732C199.458 29.976 199.23 29.118 199.23 28.158C199.23 27.21 199.452 26.358 199.896 25.602C200.352 24.834 200.97 24.24 201.75 23.82C202.542 23.388 203.424 23.172 204.396 23.172C205.344 23.172 206.202 23.376 206.97 23.784C207.738 24.192 208.338 24.78 208.77 25.548C209.214 26.304 209.436 27.186 209.436 28.194ZM204.414 25.296C203.778 25.296 203.244 25.476 202.812 25.836C202.38 26.196 202.116 26.688 202.02 27.312H206.79C206.694 26.7 206.43 26.214 205.998 25.854C205.566 25.482 205.038 25.296 204.414 25.296Z" fill="white"/>
</svg>
