<svg width="314" height="219" viewBox="0 0 314 219" fill="none" xmlns="http://www.w3.org/2000/svg">
<path d="M219 218H296C305.389 218 313 210.389 313 201V46L219 218Z" fill="#C00630"/>
<path d="M313 18C313 8.61116 305.389 1 296 1H18C8.61116 1 1 8.61116 1 18V35V201C1 210.389 8.61116 218 18 218H219L313 46V18Z" fill="#004077"/>
<path d="M18 1.5H296V0.5H18V1.5ZM296 217.5H219V218.5H296V217.5ZM219 217.5H18V218.5H219V217.5ZM312.5 18V46H313.5V18H312.5ZM312.5 46V201H313.5V46H312.5ZM219.439 218.24L313.439 46.2398L312.561 45.7602L218.561 217.76L219.439 218.24ZM1.5 201V35H0.5V201H1.5ZM1.5 35V18H0.5V35H1.5ZM18 217.5C8.8873 217.5 1.5 210.113 1.5 201H0.5C0.5 210.665 8.33502 218.5 18 218.5V217.5ZM296 218.5C305.665 218.5 313.5 210.665 313.5 201H312.5C312.5 210.113 305.113 217.5 296 217.5V218.5ZM296 1.5C305.113 1.5 312.5 8.8873 312.5 18H313.5C313.5 8.33502 305.665 0.5 296 0.5V1.5ZM18 0.5C8.33502 0.5 0.5 8.33502 0.5 18H1.5C1.5 8.8873 8.8873 1.5 18 1.5V0.5Z" fill="#004077"/>
<path d="M236 18L216.141 52H1V18H236Z" fill="#C00630"/>
<path d="M236 18L236.432 18.2522L236.871 17.5H236V18ZM216.141 52V52.5H216.428L216.573 52.2522L216.141 52ZM1 52H0.5V52.5H1V52ZM1 18V17.5H0.5V18H1ZM235.568 17.7478L215.709 51.7478L216.573 52.2522L236.432 18.2522L235.568 17.7478ZM216.141 51.5H1V52.5H216.141V51.5ZM1.5 52V18H0.5V52H1.5ZM1 18.5H236V17.5H1V18.5Z" fill="#004077"/>
</svg>
