<svg width="360" height="203" viewBox="0 0 360 203" fill="none" xmlns="http://www.w3.org/2000/svg">
<path d="M359.773 0H0V202.482H359.773V0Z" fill="#2A327D"/>
<path d="M306.399 167.63L298.786 176.144L317.011 196.527L324.624 188.012L306.399 167.63Z" fill="white"/>
<path d="M359.804 172.922L352.191 164.408L331.085 188.012L338.698 196.527L359.804 172.922Z" fill="white"/>
<path d="M327.931 167.63L320.318 176.144L338.543 196.527L346.156 188.012L327.931 167.63Z" fill="white"/>
<path d="M335.39 176.144L327.777 167.63L309.552 188.012L317.165 196.527L335.39 176.144Z" fill="white"/>
<path d="M284.834 167.594L277.22 176.108L295.446 196.491L303.059 187.977L284.834 167.594Z" fill="white"/>
<path d="M313.856 176.144L306.243 167.63L288.018 188.012L295.631 196.527L313.856 176.144Z" fill="white"/>
<path d="M298.746 176.014L287.986 163.981L284.757 167.593L295.516 179.626L298.746 176.014Z" fill="#CF1A23"/>
<path d="M341.812 176.014L331.052 163.981L327.822 167.593L338.582 179.626L341.812 176.014Z" fill="#CF1A23"/>
<path d="M320.278 176.014L309.518 163.981L306.288 167.593L317.048 179.626L320.278 176.014Z" fill="#CF1A23"/>
<path d="M105.504 168.224H111.672L101.118 201.526H95.2874L105.504 168.224Z" fill="white"/>
<path d="M146.883 168.224H153.051L142.497 201.526H136.667L146.883 168.224Z" fill="white"/>
<path d="M136.538 168.224H142.706L132.153 201.526H126.322L136.538 168.224Z" fill="white"/>
<path d="M126.193 168.224H132.362L121.808 201.526H115.977L126.193 168.224Z" fill="white"/>
<path d="M115.849 168.224H122.017L111.463 201.526H105.632L115.849 168.224Z" fill="white"/>
<path d="M168.84 27.8V32.98H166.44V30H155.7V32.98H153.28L153.3 27.8H153.9C154.78 27.76 155.393 27.1133 155.74 25.86C156.1 24.5933 156.32 22.7867 156.4 20.44L156.56 16H166.82V27.8H168.84ZM158.68 20.68C158.613 22.4933 158.467 24.0067 158.24 25.22C158.013 26.42 157.653 27.28 157.16 27.8H164.26V18.2H158.78L158.68 20.68ZM180.813 24.72C180.813 24.8933 180.799 25.14 180.773 25.46H172.393C172.539 26.2467 172.919 26.8733 173.533 27.34C174.159 27.7933 174.933 28.02 175.853 28.02C177.026 28.02 177.993 27.6333 178.753 26.86L180.093 28.4C179.613 28.9733 179.006 29.4067 178.273 29.7C177.539 29.9933 176.713 30.14 175.793 30.14C174.619 30.14 173.586 29.9067 172.693 29.44C171.799 28.9733 171.106 28.3267 170.613 27.5C170.133 26.66 169.893 25.7133 169.893 24.66C169.893 23.62 170.126 22.6867 170.593 21.86C171.073 21.02 171.733 20.3667 172.573 19.9C173.413 19.4333 174.359 19.2 175.413 19.2C176.453 19.2 177.379 19.4333 178.193 19.9C179.019 20.3533 179.659 21 180.113 21.84C180.579 22.6667 180.813 23.6267 180.813 24.72ZM175.413 21.2C174.613 21.2 173.933 21.44 173.373 21.92C172.826 22.3867 172.493 23.0133 172.373 23.8H178.433C178.326 23.0267 177.999 22.4 177.453 21.92C176.906 21.44 176.226 21.2 175.413 21.2ZM183.547 19.32H186.047V23.66H191.427V19.32H193.927V30H191.427V25.78H186.047V30H183.547V19.32ZM202.638 22.84C203.998 22.84 205.038 23.1467 205.758 23.76C206.491 24.3733 206.858 25.24 206.858 26.36C206.858 27.5333 206.458 28.44 205.658 29.08C204.858 29.72 203.731 30.0333 202.278 30.02L197.278 30V19.32H199.778V22.82L202.638 22.84ZM202.058 28.18C202.791 28.1933 203.351 28.04 203.738 27.72C204.124 27.4 204.318 26.9333 204.318 26.32C204.318 25.72 204.131 25.28 203.758 25C203.384 24.72 202.818 24.5733 202.058 24.56L199.778 24.54V28.16L202.058 28.18Z" fill="white"/>
<path d="M186.44 49.14C185.36 49.14 184.387 48.9067 183.52 48.44C182.653 47.9733 181.973 47.3267 181.48 46.5C181 45.66 180.76 44.7133 180.76 43.66C180.76 42.6067 181 41.6667 181.48 40.84C181.973 40.0133 182.653 39.3667 183.52 38.9C184.387 38.4333 185.36 38.2 186.44 38.2C187.533 38.2 188.513 38.4333 189.38 38.9C190.247 39.3667 190.92 40.0133 191.4 40.84C191.893 41.6667 192.14 42.6067 192.14 43.66C192.14 44.7133 191.893 45.66 191.4 46.5C190.92 47.3267 190.247 47.9733 189.38 48.44C188.513 48.9067 187.533 49.14 186.44 49.14ZM186.44 47C187.36 47 188.12 46.6933 188.72 46.08C189.32 45.4667 189.62 44.66 189.62 43.66C189.62 42.66 189.32 41.8533 188.72 41.24C188.12 40.6267 187.36 40.32 186.44 40.32C185.52 40.32 184.76 40.6267 184.16 41.24C183.573 41.8533 183.28 42.66 183.28 43.66C183.28 44.66 183.573 45.4667 184.16 46.08C184.76 46.6933 185.52 47 186.44 47ZM202.679 40.44H198.939V49H196.439V40.44H192.679V38.32H202.679V40.44ZM208.933 44.72H206.993V49H204.493V38.32H206.993V42.64H208.993L212.153 38.32H214.833L210.953 43.46L215.093 49H212.153L208.933 44.72ZM222.776 38.2C223.816 38.2 224.742 38.4267 225.556 38.88C226.382 39.3333 227.029 39.9733 227.496 40.8C227.962 41.6267 228.196 42.58 228.196 43.66C228.196 44.74 227.962 45.7 227.496 46.54C227.029 47.3667 226.382 48.0067 225.556 48.46C224.742 48.9133 223.816 49.14 222.776 49.14C221.336 49.14 220.196 48.66 219.356 47.7V52.88H216.856V38.32H219.236V39.72C219.649 39.2133 220.156 38.8333 220.756 38.58C221.369 38.3267 222.042 38.2 222.776 38.2ZM222.496 47C223.416 47 224.169 46.6933 224.756 46.08C225.356 45.4667 225.656 44.66 225.656 43.66C225.656 42.66 225.356 41.8533 224.756 41.24C224.169 40.6267 223.416 40.32 222.496 40.32C221.896 40.32 221.356 40.46 220.876 40.74C220.396 41.0067 220.016 41.3933 219.736 41.9C219.456 42.4067 219.316 42.9933 219.316 43.66C219.316 44.3267 219.456 44.9133 219.736 45.42C220.016 45.9267 220.396 46.32 220.876 46.6C221.356 46.8667 221.896 47 222.496 47ZM235.884 41.84C237.244 41.84 238.284 42.1467 239.004 42.76C239.724 43.3733 240.084 44.24 240.084 45.36C240.084 46.5333 239.684 47.44 238.884 48.08C238.097 48.72 236.977 49.0333 235.524 49.02L230.684 49V38.32H233.184V41.82L235.884 41.84ZM241.464 38.32H243.964V49H241.464V38.32ZM235.304 47.18C236.037 47.1933 236.597 47.04 236.984 46.72C237.371 46.4 237.564 45.9333 237.564 45.32C237.564 44.72 237.377 44.28 237.004 44C236.631 43.72 236.064 43.5733 235.304 43.56L233.184 43.54V47.16L235.304 47.18ZM255.785 40.44H252.045V49H249.545V40.44H245.785V38.32H255.785V40.44ZM262.798 41.84C264.158 41.84 265.198 42.1467 265.918 42.76C266.638 43.3733 266.998 44.24 266.998 45.36C266.998 46.5333 266.598 47.44 265.798 48.08C265.011 48.72 263.891 49.0333 262.438 49.02L257.598 49V38.32H260.098V41.82L262.798 41.84ZM268.378 38.32H270.878V49H268.378V38.32ZM262.218 47.18C262.951 47.1933 263.511 47.04 263.898 46.72C264.285 46.4 264.478 45.9333 264.478 45.32C264.478 44.72 264.291 44.28 263.918 44C263.545 43.72 262.978 43.5733 262.218 43.56L260.098 43.54V47.16L262.218 47.18ZM280.919 49L278.179 45.3L275.419 49H272.659L276.819 43.58L272.839 38.32H275.619L278.239 41.82L280.859 38.32H283.559L279.559 43.54L283.739 49H280.919Z" fill="white"/>
<path d="M243.08 65.88V70.38H240.74V68H232.5V70.38H230.18V65.88H230.68C231.36 65.8533 231.82 65.42 232.06 64.58C232.313 63.7267 232.48 62.5267 232.56 60.98L232.7 57.32H241.5V65.88H243.08ZM234.84 61.16C234.787 62.3867 234.687 63.3867 234.54 64.16C234.393 64.9333 234.127 65.5067 233.74 65.88H239V59.44H234.9L234.84 61.16ZM253.053 62.44C254.373 62.84 255.033 63.6933 255.033 65C255.033 65.96 254.673 66.7 253.953 67.22C253.233 67.74 252.166 68 250.753 68H245.313V57.32H250.533C251.839 57.32 252.859 57.56 253.593 58.04C254.326 58.52 254.693 59.2 254.693 60.08C254.693 60.6267 254.546 61.1 254.253 61.5C253.973 61.9 253.573 62.2133 253.053 62.44ZM247.693 61.78H250.313C251.606 61.78 252.253 61.3333 252.253 60.44C252.253 59.5733 251.606 59.14 250.313 59.14H247.693V61.78ZM250.553 66.18C251.926 66.18 252.613 65.7333 252.613 64.84C252.613 64.3733 252.453 64.0267 252.133 63.8C251.813 63.56 251.313 63.44 250.633 63.44H247.693V66.18H250.553ZM267.696 62.72C267.696 62.8933 267.682 63.14 267.656 63.46H259.276C259.422 64.2467 259.802 64.8733 260.416 65.34C261.042 65.7933 261.816 66.02 262.736 66.02C263.909 66.02 264.876 65.6333 265.636 64.86L266.976 66.4C266.496 66.9733 265.889 67.4067 265.156 67.7C264.422 67.9933 263.596 68.14 262.676 68.14C261.502 68.14 260.469 67.9067 259.576 67.44C258.682 66.9733 257.989 66.3267 257.496 65.5C257.016 64.66 256.776 63.7133 256.776 62.66C256.776 61.62 257.009 60.6867 257.476 59.86C257.956 59.02 258.616 58.3667 259.456 57.9C260.296 57.4333 261.242 57.2 262.296 57.2C263.336 57.2 264.262 57.4333 265.076 57.9C265.902 58.3533 266.542 59 266.996 59.84C267.462 60.6667 267.696 61.6267 267.696 62.72ZM262.296 59.2C261.496 59.2 260.816 59.44 260.256 59.92C259.709 60.3867 259.376 61.0133 259.256 61.8H265.316C265.209 61.0267 264.882 60.4 264.336 59.92C263.789 59.44 263.109 59.2 262.296 59.2ZM276.35 57.2C277.39 57.2 278.317 57.4267 279.13 57.88C279.957 58.3333 280.603 58.9733 281.07 59.8C281.537 60.6267 281.77 61.58 281.77 62.66C281.77 63.74 281.537 64.7 281.07 65.54C280.603 66.3667 279.957 67.0067 279.13 67.46C278.317 67.9133 277.39 68.14 276.35 68.14C274.91 68.14 273.77 67.66 272.93 66.7V71.88H270.43V57.32H272.81V58.72C273.223 58.2133 273.73 57.8333 274.33 57.58C274.943 57.3267 275.617 57.2 276.35 57.2ZM276.07 66C276.99 66 277.743 65.6933 278.33 65.08C278.93 64.4667 279.23 63.66 279.23 62.66C279.23 61.66 278.93 60.8533 278.33 60.24C277.743 59.6267 276.99 59.32 276.07 59.32C275.47 59.32 274.93 59.46 274.45 59.74C273.97 60.0067 273.59 60.3933 273.31 60.9C273.03 61.4067 272.89 61.9933 272.89 62.66C272.89 63.3267 273.03 63.9133 273.31 64.42C273.59 64.9267 273.97 65.32 274.45 65.6C274.93 65.8667 275.47 66 276.07 66ZM294.258 62.72C294.258 62.8933 294.245 63.14 294.218 63.46H285.838C285.985 64.2467 286.365 64.8733 286.978 65.34C287.605 65.7933 288.378 66.02 289.298 66.02C290.471 66.02 291.438 65.6333 292.198 64.86L293.538 66.4C293.058 66.9733 292.451 67.4067 291.718 67.7C290.985 67.9933 290.158 68.14 289.238 68.14C288.065 68.14 287.031 67.9067 286.138 67.44C285.245 66.9733 284.551 66.3267 284.058 65.5C283.578 64.66 283.338 63.7133 283.338 62.66C283.338 61.62 283.571 60.6867 284.038 59.86C284.518 59.02 285.178 58.3667 286.018 57.9C286.858 57.4333 287.805 57.2 288.858 57.2C289.898 57.2 290.825 57.4333 291.638 57.9C292.465 58.3533 293.105 59 293.558 59.84C294.025 60.6667 294.258 61.6267 294.258 62.72ZM288.858 59.2C288.058 59.2 287.378 59.44 286.818 59.92C286.271 60.3867 285.938 61.0133 285.818 61.8H291.878C291.771 61.0267 291.445 60.4 290.898 59.92C290.351 59.44 289.671 59.2 288.858 59.2ZM296.993 57.32H299.493V64.36L305.393 57.32H307.673V68H305.173V60.96L299.293 68H296.993V57.32ZM302.173 56.06C301.093 56.06 300.266 55.8133 299.693 55.32C299.133 54.8133 298.846 54.08 298.833 53.12H300.493C300.506 53.6 300.653 53.98 300.933 54.26C301.226 54.54 301.633 54.68 302.153 54.68C302.659 54.68 303.059 54.54 303.353 54.26C303.659 53.98 303.819 53.6 303.833 53.12H305.533C305.519 54.08 305.226 54.8133 304.653 55.32C304.079 55.8133 303.253 56.06 302.173 56.06Z" fill="white"/>
<path d="M139.98 104.5V115H138.885V110.155H132.315V115H131.205V104.5H132.315V109.18H138.885V104.5H139.98ZM145.984 107.05C147.014 107.05 147.804 107.31 148.354 107.83C148.904 108.34 149.179 109.1 149.179 110.11V115H148.159V113.77C147.919 114.18 147.564 114.5 147.094 114.73C146.634 114.96 146.084 115.075 145.444 115.075C144.564 115.075 143.864 114.865 143.344 114.445C142.824 114.025 142.564 113.47 142.564 112.78C142.564 112.11 142.804 111.57 143.284 111.16C143.774 110.75 144.549 110.545 145.609 110.545H148.114V110.065C148.114 109.385 147.924 108.87 147.544 108.52C147.164 108.16 146.609 107.98 145.879 107.98C145.379 107.98 144.899 108.065 144.439 108.235C143.979 108.395 143.584 108.62 143.254 108.91L142.774 108.115C143.174 107.775 143.654 107.515 144.214 107.335C144.774 107.145 145.364 107.05 145.984 107.05ZM145.609 114.235C146.209 114.235 146.724 114.1 147.154 113.83C147.584 113.55 147.904 113.15 148.114 112.63V111.34H145.639C144.289 111.34 143.614 111.81 143.614 112.75C143.614 113.21 143.789 113.575 144.139 113.845C144.489 114.105 144.979 114.235 145.609 114.235ZM160.234 114.07V116.98H159.229V115H152.014V107.11H153.079V114.07H157.894V107.11H158.959V114.07H160.234ZM162.268 107.11H163.333V113.38L168.598 107.11H169.543V115H168.478V108.73L163.228 115H162.268V107.11ZM175.85 115.075C175.09 115.075 174.405 114.905 173.795 114.565C173.185 114.215 172.705 113.735 172.355 113.125C172.005 112.515 171.83 111.825 171.83 111.055C171.83 110.285 172.005 109.595 172.355 108.985C172.705 108.375 173.185 107.9 173.795 107.56C174.405 107.22 175.09 107.05 175.85 107.05C176.61 107.05 177.295 107.22 177.905 107.56C178.515 107.9 178.99 108.375 179.33 108.985C179.68 109.595 179.855 110.285 179.855 111.055C179.855 111.825 179.68 112.515 179.33 113.125C178.99 113.735 178.515 114.215 177.905 114.565C177.295 114.905 176.61 115.075 175.85 115.075ZM175.85 114.13C176.41 114.13 176.91 114.005 177.35 113.755C177.8 113.495 178.15 113.13 178.4 112.66C178.65 112.19 178.775 111.655 178.775 111.055C178.775 110.455 178.65 109.92 178.4 109.45C178.15 108.98 177.8 108.62 177.35 108.37C176.91 108.11 176.41 107.98 175.85 107.98C175.29 107.98 174.785 108.11 174.335 108.37C173.895 108.62 173.545 108.98 173.285 109.45C173.035 109.92 172.91 110.455 172.91 111.055C172.91 111.655 173.035 112.19 173.285 112.66C173.545 113.13 173.895 113.495 174.335 113.755C174.785 114.005 175.29 114.13 175.85 114.13ZM182.131 107.11H183.196V110.605H188.161V107.11H189.226V115H188.161V111.52H183.196V115H182.131V107.11ZM194.968 107.05C195.998 107.05 196.788 107.31 197.338 107.83C197.888 108.34 198.163 109.1 198.163 110.11V115H197.143V113.77C196.903 114.18 196.548 114.5 196.078 114.73C195.618 114.96 195.068 115.075 194.428 115.075C193.548 115.075 192.848 114.865 192.328 114.445C191.808 114.025 191.548 113.47 191.548 112.78C191.548 112.11 191.788 111.57 192.268 111.16C192.758 110.75 193.533 110.545 194.593 110.545H197.098V110.065C197.098 109.385 196.908 108.87 196.528 108.52C196.148 108.16 195.593 107.98 194.863 107.98C194.363 107.98 193.883 108.065 193.423 108.235C192.963 108.395 192.568 108.62 192.238 108.91L191.758 108.115C192.158 107.775 192.638 107.515 193.198 107.335C193.758 107.145 194.348 107.05 194.968 107.05ZM194.593 114.235C195.193 114.235 195.708 114.1 196.138 113.83C196.568 113.55 196.888 113.15 197.098 112.63V111.34H194.623C193.273 111.34 192.598 111.81 192.598 112.75C192.598 113.21 192.773 113.575 193.123 113.845C193.473 114.105 193.963 114.235 194.593 114.235ZM207.448 107.11V115H206.383V108.055H202.603L202.498 110.005C202.418 111.645 202.228 112.905 201.928 113.785C201.628 114.665 201.093 115.105 200.323 115.105C200.113 115.105 199.858 115.065 199.558 114.985L199.633 114.07C199.813 114.11 199.938 114.13 200.008 114.13C200.418 114.13 200.728 113.94 200.938 113.56C201.148 113.18 201.288 112.71 201.358 112.15C201.428 111.59 201.488 110.85 201.538 109.93L201.673 107.11H207.448ZM213.866 109.9C214.856 109.91 215.606 110.13 216.116 110.56C216.636 110.99 216.896 111.61 216.896 112.42C216.896 113.26 216.616 113.905 216.056 114.355C215.506 114.805 214.706 115.025 213.656 115.015L210.476 115V107.11H211.541V109.87L213.866 109.9ZM213.596 114.205C214.326 114.215 214.876 114.07 215.246 113.77C215.626 113.46 215.816 113.01 215.816 112.42C215.816 111.84 215.631 111.41 215.261 111.13C214.891 110.85 214.336 110.705 213.596 110.695L211.541 110.665V114.175L213.596 114.205ZM218.928 107.11H219.993V110.605H224.958V107.11H226.023V115H224.958V111.52H219.993V115H218.928V107.11ZM232.365 109.9C233.355 109.91 234.11 110.13 234.63 110.56C235.15 110.99 235.41 111.61 235.41 112.42C235.41 113.26 235.13 113.905 234.57 114.355C234.01 114.805 233.21 115.025 232.17 115.015L229.05 115V107.11H230.115V109.87L232.365 109.9ZM236.73 107.11H237.795V115H236.73V107.11ZM232.11 114.205C232.84 114.215 233.39 114.07 233.76 113.77C234.14 113.46 234.33 113.01 234.33 112.42C234.33 111.84 234.145 111.41 233.775 111.13C233.405 110.85 232.85 110.705 232.11 110.695L230.115 110.665V114.175L232.11 114.205ZM240.828 107.11H241.893V113.38L247.158 107.11H248.103V115H247.038V108.73L241.788 115H240.828V107.11ZM244.413 105.97C243.733 105.97 243.193 105.8 242.793 105.46C242.393 105.12 242.188 104.64 242.178 104.02H242.943C242.953 104.41 243.093 104.725 243.363 104.965C243.633 105.195 243.983 105.31 244.413 105.31C244.843 105.31 245.193 105.195 245.463 104.965C245.743 104.725 245.888 104.41 245.898 104.02H246.663C246.653 104.64 246.443 105.12 246.033 105.46C245.633 105.8 245.093 105.97 244.413 105.97ZM113.957 125.11H115.022V131.38L120.287 125.11H121.232V133H120.167V126.73L114.917 133H113.957V125.11ZM127.585 133.075C126.805 133.075 126.105 132.905 125.485 132.565C124.875 132.225 124.395 131.75 124.045 131.14C123.695 130.52 123.52 129.825 123.52 129.055C123.52 128.285 123.695 127.595 124.045 126.985C124.395 126.375 124.875 125.9 125.485 125.56C126.105 125.22 126.805 125.05 127.585 125.05C128.265 125.05 128.87 125.185 129.4 125.455C129.94 125.715 130.365 126.1 130.675 126.61L129.88 127.15C129.62 126.76 129.29 126.47 128.89 126.28C128.49 126.08 128.055 125.98 127.585 125.98C127.015 125.98 126.5 126.11 126.04 126.37C125.59 126.62 125.235 126.98 124.975 127.45C124.725 127.92 124.6 128.455 124.6 129.055C124.6 129.665 124.725 130.205 124.975 130.675C125.235 131.135 125.59 131.495 126.04 131.755C126.5 132.005 127.015 132.13 127.585 132.13C128.055 132.13 128.49 132.035 128.89 131.845C129.29 131.655 129.62 131.365 129.88 130.975L130.675 131.515C130.365 132.025 129.94 132.415 129.4 132.685C128.86 132.945 128.255 133.075 127.585 133.075ZM135.905 133.075C135.125 133.075 134.425 132.905 133.805 132.565C133.195 132.225 132.715 131.75 132.365 131.14C132.015 130.52 131.84 129.825 131.84 129.055C131.84 128.285 132.015 127.595 132.365 126.985C132.715 126.375 133.195 125.9 133.805 125.56C134.425 125.22 135.125 125.05 135.905 125.05C136.585 125.05 137.19 125.185 137.72 125.455C138.26 125.715 138.685 126.1 138.995 126.61L138.2 127.15C137.94 126.76 137.61 126.47 137.21 126.28C136.81 126.08 136.375 125.98 135.905 125.98C135.335 125.98 134.82 126.11 134.36 126.37C133.91 126.62 133.555 126.98 133.295 127.45C133.045 127.92 132.92 128.455 132.92 129.055C132.92 129.665 133.045 130.205 133.295 130.675C133.555 131.135 133.91 131.495 134.36 131.755C134.82 132.005 135.335 132.13 135.905 132.13C136.375 132.13 136.81 132.035 137.21 131.845C137.61 131.655 137.94 131.365 138.2 130.975L138.995 131.515C138.685 132.025 138.26 132.415 137.72 132.685C137.18 132.945 136.575 133.075 135.905 133.075ZM147.243 125.11V133H146.178V126.055H142.398L142.293 128.005C142.213 129.645 142.023 130.905 141.723 131.785C141.423 132.665 140.888 133.105 140.118 133.105C139.908 133.105 139.653 133.065 139.353 132.985L139.428 132.07C139.608 132.11 139.733 132.13 139.803 132.13C140.213 132.13 140.523 131.94 140.733 131.56C140.943 131.18 141.083 130.71 141.153 130.15C141.223 129.59 141.283 128.85 141.333 127.93L141.468 125.11H147.243ZM157.171 129.385H150.571C150.631 130.205 150.946 130.87 151.516 131.38C152.086 131.88 152.806 132.13 153.676 132.13C154.166 132.13 154.616 132.045 155.026 131.875C155.436 131.695 155.791 131.435 156.091 131.095L156.691 131.785C156.341 132.205 155.901 132.525 155.371 132.745C154.851 132.965 154.276 133.075 153.646 133.075C152.836 133.075 152.116 132.905 151.486 132.565C150.866 132.215 150.381 131.735 150.031 131.125C149.681 130.515 149.506 129.825 149.506 129.055C149.506 128.285 149.671 127.595 150.001 126.985C150.341 126.375 150.801 125.9 151.381 125.56C151.971 125.22 152.631 125.05 153.361 125.05C154.091 125.05 154.746 125.22 155.326 125.56C155.906 125.9 156.361 126.375 156.691 126.985C157.021 127.585 157.186 128.275 157.186 129.055L157.171 129.385ZM153.361 125.965C152.601 125.965 151.961 126.21 151.441 126.7C150.931 127.18 150.641 127.81 150.571 128.59H156.166C156.096 127.81 155.801 127.18 155.281 126.7C154.771 126.21 154.131 125.965 153.361 125.965ZM167.077 132.07V134.905H166.072V133H159.007V134.905H158.002V132.07H158.452C158.982 132.04 159.342 131.65 159.532 130.9C159.722 130.15 159.852 129.1 159.922 127.75L160.027 125.11H165.847V132.07H167.077ZM160.897 127.81C160.847 128.93 160.752 129.855 160.612 130.585C160.472 131.305 160.222 131.8 159.862 132.07H164.782V126.055H160.987L160.897 127.81ZM172.408 133.075C171.648 133.075 170.963 132.905 170.353 132.565C169.743 132.215 169.263 131.735 168.913 131.125C168.563 130.515 168.388 129.825 168.388 129.055C168.388 128.285 168.563 127.595 168.913 126.985C169.263 126.375 169.743 125.9 170.353 125.56C170.963 125.22 171.648 125.05 172.408 125.05C173.168 125.05 173.853 125.22 174.463 125.56C175.073 125.9 175.548 126.375 175.888 126.985C176.238 127.595 176.413 128.285 176.413 129.055C176.413 129.825 176.238 130.515 175.888 131.125C175.548 131.735 175.073 132.215 174.463 132.565C173.853 132.905 173.168 133.075 172.408 133.075ZM172.408 132.13C172.968 132.13 173.468 132.005 173.908 131.755C174.358 131.495 174.708 131.13 174.958 130.66C175.208 130.19 175.333 129.655 175.333 129.055C175.333 128.455 175.208 127.92 174.958 127.45C174.708 126.98 174.358 126.62 173.908 126.37C173.468 126.11 172.968 125.98 172.408 125.98C171.848 125.98 171.343 126.11 170.893 126.37C170.453 126.62 170.103 126.98 169.843 127.45C169.593 127.92 169.468 128.455 169.468 129.055C169.468 129.655 169.593 130.19 169.843 130.66C170.103 131.13 170.453 131.495 170.893 131.755C171.343 132.005 171.848 132.13 172.408 132.13ZM183.714 128.92C184.784 129.17 185.319 129.815 185.319 130.855C185.319 131.545 185.064 132.075 184.554 132.445C184.044 132.815 183.284 133 182.274 133H178.689V125.11H182.169C183.069 125.11 183.774 125.285 184.284 125.635C184.794 125.985 185.049 126.485 185.049 127.135C185.049 127.565 184.929 127.935 184.689 128.245C184.459 128.545 184.134 128.77 183.714 128.92ZM179.724 128.62H182.094C182.704 128.62 183.169 128.505 183.489 128.275C183.819 128.045 183.984 127.71 183.984 127.27C183.984 126.83 183.819 126.5 183.489 126.28C183.169 126.06 182.704 125.95 182.094 125.95H179.724V128.62ZM182.229 132.16C182.909 132.16 183.419 132.05 183.759 131.83C184.099 131.61 184.269 131.265 184.269 130.795C184.269 130.325 184.114 129.98 183.804 129.76C183.494 129.53 183.004 129.415 182.334 129.415H179.724V132.16H182.229ZM190.53 125.05C191.56 125.05 192.35 125.31 192.9 125.83C193.45 126.34 193.725 127.1 193.725 128.11V133H192.705V131.77C192.465 132.18 192.11 132.5 191.64 132.73C191.18 132.96 190.63 133.075 189.99 133.075C189.11 133.075 188.41 132.865 187.89 132.445C187.37 132.025 187.11 131.47 187.11 130.78C187.11 130.11 187.35 129.57 187.83 129.16C188.32 128.75 189.095 128.545 190.155 128.545H192.66V128.065C192.66 127.385 192.47 126.87 192.09 126.52C191.71 126.16 191.155 125.98 190.425 125.98C189.925 125.98 189.445 126.065 188.985 126.235C188.525 126.395 188.13 126.62 187.8 126.91L187.32 126.115C187.72 125.775 188.2 125.515 188.76 125.335C189.32 125.145 189.91 125.05 190.53 125.05ZM190.155 132.235C190.755 132.235 191.27 132.1 191.7 131.83C192.13 131.55 192.45 131.15 192.66 130.63V129.34H190.185C188.835 129.34 188.16 129.81 188.16 130.75C188.16 131.21 188.335 131.575 188.685 131.845C189.035 132.105 189.525 132.235 190.155 132.235ZM202.11 126.055H199.125V133H198.06V126.055H195.075V125.11H202.11V126.055ZM210.184 129.385H203.584C203.644 130.205 203.959 130.87 204.529 131.38C205.099 131.88 205.819 132.13 206.689 132.13C207.179 132.13 207.629 132.045 208.039 131.875C208.449 131.695 208.804 131.435 209.104 131.095L209.704 131.785C209.354 132.205 208.914 132.525 208.384 132.745C207.864 132.965 207.289 133.075 206.659 133.075C205.849 133.075 205.129 132.905 204.499 132.565C203.879 132.215 203.394 131.735 203.044 131.125C202.694 130.515 202.519 129.825 202.519 129.055C202.519 128.285 202.684 127.595 203.014 126.985C203.354 126.375 203.814 125.9 204.394 125.56C204.984 125.22 205.644 125.05 206.374 125.05C207.104 125.05 207.759 125.22 208.339 125.56C208.919 125.9 209.374 126.375 209.704 126.985C210.034 127.585 210.199 128.275 210.199 129.055L210.184 129.385ZM206.374 125.965C205.614 125.965 204.974 126.21 204.454 126.7C203.944 127.18 203.654 127.81 203.584 128.59H209.179C209.109 127.81 208.814 127.18 208.294 126.7C207.784 126.21 207.144 125.965 206.374 125.965ZM218.845 125.11V133H217.78V126.055H214L213.895 128.005C213.815 129.645 213.625 130.905 213.325 131.785C213.025 132.665 212.49 133.105 211.72 133.105C211.51 133.105 211.255 133.065 210.955 132.985L211.03 132.07C211.21 132.11 211.335 132.13 211.405 132.13C211.815 132.13 212.125 131.94 212.335 131.56C212.545 131.18 212.685 130.71 212.755 130.15C212.825 129.59 212.885 128.85 212.935 127.93L213.07 125.11H218.845ZM225.262 127.9C226.252 127.91 227.002 128.13 227.512 128.56C228.032 128.99 228.292 129.61 228.292 130.42C228.292 131.26 228.012 131.905 227.452 132.355C226.902 132.805 226.102 133.025 225.052 133.015L221.872 133V125.11H222.937V127.87L225.262 127.9ZM224.992 132.205C225.722 132.215 226.272 132.07 226.642 131.77C227.022 131.46 227.212 131.01 227.212 130.42C227.212 129.84 227.027 129.41 226.657 129.13C226.287 128.85 225.732 128.705 224.992 128.695L222.937 128.665V132.175L224.992 132.205ZM233.625 133.075C232.845 133.075 232.145 132.905 231.525 132.565C230.915 132.225 230.435 131.75 230.085 131.14C229.735 130.52 229.56 129.825 229.56 129.055C229.56 128.285 229.735 127.595 230.085 126.985C230.435 126.375 230.915 125.9 231.525 125.56C232.145 125.22 232.845 125.05 233.625 125.05C234.305 125.05 234.91 125.185 235.44 125.455C235.98 125.715 236.405 126.1 236.715 126.61L235.92 127.15C235.66 126.76 235.33 126.47 234.93 126.28C234.53 126.08 234.095 125.98 233.625 125.98C233.055 125.98 232.54 126.11 232.08 126.37C231.63 126.62 231.275 126.98 231.015 127.45C230.765 127.92 230.64 128.455 230.64 129.055C230.64 129.665 230.765 130.205 231.015 130.675C231.275 131.135 231.63 131.495 232.08 131.755C232.54 132.005 233.055 132.13 233.625 132.13C234.095 132.13 234.53 132.035 234.93 131.845C235.33 131.655 235.66 131.365 235.92 130.975L236.715 131.515C236.405 132.025 235.98 132.415 235.44 132.685C234.9 132.945 234.295 133.075 233.625 133.075ZM241.642 129.49H239.842V133H238.777V125.11H239.842V128.575H241.657L244.432 125.11H245.587L242.482 128.935L245.812 133H244.552L241.642 129.49ZM247.493 125.11H248.558V131.38L253.823 125.11H254.768V133H253.703V126.73L248.453 133H247.493V125.11ZM257.82 125.11H258.885V131.38L264.15 125.11H265.095V133H264.03V126.73L258.78 133H257.82V125.11ZM261.405 123.97C260.725 123.97 260.185 123.8 259.785 123.46C259.385 123.12 259.18 122.64 259.17 122.02H259.935C259.945 122.41 260.085 122.725 260.355 122.965C260.625 123.195 260.975 123.31 261.405 123.31C261.835 123.31 262.185 123.195 262.455 122.965C262.735 122.725 262.88 122.41 262.89 122.02H263.655C263.645 122.64 263.435 123.12 263.025 123.46C262.625 123.8 262.085 123.97 261.405 123.97ZM123.958 143.11L120.013 151.945C119.693 152.685 119.323 153.21 118.903 153.52C118.483 153.83 117.978 153.985 117.388 153.985C117.008 153.985 116.653 153.925 116.323 153.805C115.993 153.685 115.708 153.505 115.468 153.265L115.963 152.47C116.363 152.87 116.843 153.07 117.403 153.07C117.763 153.07 118.068 152.97 118.318 152.77C118.578 152.57 118.818 152.23 119.038 151.75L119.383 150.985L115.858 143.11H116.968L119.938 149.815L122.908 143.11H123.958ZM125.618 143.11H126.683V146.605H131.648V143.11H132.713V151H131.648V147.52H126.683V151H125.618V143.11ZM135.74 143.11H136.805V149.38L142.07 143.11H143.015V151H141.95V144.73L136.7 151H135.74V143.11ZM151.092 146.92C152.162 147.17 152.697 147.815 152.697 148.855C152.697 149.545 152.442 150.075 151.932 150.445C151.422 150.815 150.662 151 149.652 151H146.067V143.11H149.547C150.447 143.11 151.152 143.285 151.662 143.635C152.172 143.985 152.427 144.485 152.427 145.135C152.427 145.565 152.307 145.935 152.067 146.245C151.837 146.545 151.512 146.77 151.092 146.92ZM147.102 146.62H149.472C150.082 146.62 150.547 146.505 150.867 146.275C151.197 146.045 151.362 145.71 151.362 145.27C151.362 144.83 151.197 144.5 150.867 144.28C150.547 144.06 150.082 143.95 149.472 143.95H147.102V146.62ZM149.607 150.16C150.287 150.16 150.797 150.05 151.137 149.83C151.477 149.61 151.647 149.265 151.647 148.795C151.647 148.325 151.492 147.98 151.182 147.76C150.872 147.53 150.382 147.415 149.712 147.415H147.102V150.16H149.607ZM162.093 147.385H155.493C155.553 148.205 155.868 148.87 156.438 149.38C157.008 149.88 157.728 150.13 158.598 150.13C159.088 150.13 159.538 150.045 159.948 149.875C160.358 149.695 160.713 149.435 161.013 149.095L161.613 149.785C161.263 150.205 160.823 150.525 160.293 150.745C159.773 150.965 159.198 151.075 158.568 151.075C157.758 151.075 157.038 150.905 156.408 150.565C155.788 150.215 155.303 149.735 154.953 149.125C154.603 148.515 154.428 147.825 154.428 147.055C154.428 146.285 154.593 145.595 154.923 144.985C155.263 144.375 155.723 143.9 156.303 143.56C156.893 143.22 157.553 143.05 158.283 143.05C159.013 143.05 159.668 143.22 160.248 143.56C160.828 143.9 161.283 144.375 161.613 144.985C161.943 145.585 162.108 146.275 162.108 147.055L162.093 147.385ZM158.283 143.965C157.523 143.965 156.883 144.21 156.363 144.7C155.853 145.18 155.563 145.81 155.493 146.59H161.088C161.018 145.81 160.723 145.18 160.203 144.7C159.693 144.21 159.053 143.965 158.283 143.965ZM168.53 143.05C169.27 143.05 169.94 143.22 170.54 143.56C171.14 143.89 171.61 144.36 171.95 144.97C172.29 145.58 172.46 146.275 172.46 147.055C172.46 147.845 172.29 148.545 171.95 149.155C171.61 149.765 171.14 150.24 170.54 150.58C169.95 150.91 169.28 151.075 168.53 151.075C167.89 151.075 167.31 150.945 166.79 150.685C166.28 150.415 165.86 150.025 165.53 149.515V153.91H164.465V143.11H165.485V144.67C165.805 144.15 166.225 143.75 166.745 143.47C167.275 143.19 167.87 143.05 168.53 143.05ZM168.455 150.13C169.005 150.13 169.505 150.005 169.955 149.755C170.405 149.495 170.755 149.13 171.005 148.66C171.265 148.19 171.395 147.655 171.395 147.055C171.395 146.455 171.265 145.925 171.005 145.465C170.755 144.995 170.405 144.63 169.955 144.37C169.505 144.11 169.005 143.98 168.455 143.98C167.895 143.98 167.39 144.11 166.94 144.37C166.5 144.63 166.15 144.995 165.89 145.465C165.64 145.925 165.515 146.455 165.515 147.055C165.515 147.655 165.64 148.19 165.89 148.66C166.15 149.13 166.5 149.495 166.94 149.755C167.39 150.005 167.895 150.13 168.455 150.13ZM178.048 151.075C177.268 151.075 176.568 150.905 175.948 150.565C175.338 150.225 174.858 149.75 174.508 149.14C174.158 148.52 173.983 147.825 173.983 147.055C173.983 146.285 174.158 145.595 174.508 144.985C174.858 144.375 175.338 143.9 175.948 143.56C176.568 143.22 177.268 143.05 178.048 143.05C178.728 143.05 179.333 143.185 179.863 143.455C180.403 143.715 180.828 144.1 181.138 144.61L180.343 145.15C180.083 144.76 179.753 144.47 179.353 144.28C178.953 144.08 178.518 143.98 178.048 143.98C177.478 143.98 176.963 144.11 176.503 144.37C176.053 144.62 175.698 144.98 175.438 145.45C175.188 145.92 175.063 146.455 175.063 147.055C175.063 147.665 175.188 148.205 175.438 148.675C175.698 149.135 176.053 149.495 176.503 149.755C176.963 150.005 177.478 150.13 178.048 150.13C178.518 150.13 178.953 150.035 179.353 149.845C179.753 149.655 180.083 149.365 180.343 148.975L181.138 149.515C180.828 150.025 180.403 150.415 179.863 150.685C179.323 150.945 178.718 151.075 178.048 151.075ZM183.201 143.11H184.266V149.38L189.531 143.11H190.476V151H189.411V144.73L184.161 151H183.201V143.11ZM199.078 144.055H196.093V151H195.028V144.055H192.043V143.11H199.078V144.055ZM207.151 147.385H200.551C200.611 148.205 200.926 148.87 201.496 149.38C202.066 149.88 202.786 150.13 203.656 150.13C204.146 150.13 204.596 150.045 205.006 149.875C205.416 149.695 205.771 149.435 206.071 149.095L206.671 149.785C206.321 150.205 205.881 150.525 205.351 150.745C204.831 150.965 204.256 151.075 203.626 151.075C202.816 151.075 202.096 150.905 201.466 150.565C200.846 150.215 200.361 149.735 200.011 149.125C199.661 148.515 199.486 147.825 199.486 147.055C199.486 146.285 199.651 145.595 199.981 144.985C200.321 144.375 200.781 143.9 201.361 143.56C201.951 143.22 202.611 143.05 203.341 143.05C204.071 143.05 204.726 143.22 205.306 143.56C205.886 143.9 206.341 144.375 206.671 144.985C207.001 145.585 207.166 146.275 207.166 147.055L207.151 147.385ZM203.341 143.965C202.581 143.965 201.941 144.21 201.421 144.7C200.911 145.18 200.621 145.81 200.551 146.59H206.146C206.076 145.81 205.781 145.18 205.261 144.7C204.751 144.21 204.111 143.965 203.341 143.965ZM214.722 144.055H211.737V151H210.672V144.055H207.687V143.11H214.722V144.055ZM219.708 140.5H220.653L220.578 144.46H219.783L219.708 140.5ZM222.273 140.5H223.218L223.143 144.46H222.348L222.273 140.5ZM236.944 140.5V151H235.879V142.6L231.754 149.665H231.229L227.104 142.645V151H226.039V140.5H226.954L231.514 148.285L236.029 140.5H236.944ZM243.197 140.41C244.177 140.41 245.062 140.64 245.852 141.1C246.652 141.56 247.277 142.2 247.727 143.02C248.187 143.83 248.417 144.74 248.417 145.75C248.417 146.76 248.187 147.675 247.727 148.495C247.277 149.305 246.652 149.94 245.852 150.4C245.062 150.86 244.177 151.09 243.197 151.09C242.377 151.09 241.627 150.96 240.947 150.7C240.267 150.44 239.697 150.055 239.237 149.545L239.927 148.84C240.757 149.68 241.832 150.1 243.152 150.1C243.892 150.1 244.567 149.93 245.177 149.59C245.787 149.24 246.277 148.765 246.647 148.165C247.027 147.555 247.242 146.87 247.292 146.11H241.877V145.195H247.277C247.197 144.465 246.967 143.815 246.587 143.245C246.217 142.665 245.732 142.215 245.132 141.895C244.532 141.565 243.872 141.4 243.152 141.4C241.832 141.4 240.757 141.82 239.927 142.66L239.237 141.955C239.697 141.445 240.267 141.06 240.947 140.8C241.627 140.54 242.377 140.41 243.197 140.41ZM251.073 140.5H252.168V149.2L258.888 140.5H259.893V151H258.798V142.315L252.078 151H251.073V140.5ZM262.701 140.5H263.646L263.571 144.46H262.776L262.701 140.5ZM265.266 140.5H266.211L266.136 144.46H265.341L265.266 140.5Z" fill="white"/>
<path d="M0 81H13.1913V139.838C13.1913 139.838 33.8807 141.313 43.6208 132.845C54.204 123.644 58.7696 96.5341 58.7696 96.5341L70 100.803L54.0971 185L0 162.899V81Z" fill="white"/>
<path d="M0 39C12.7304 39 24.9393 44.5837 33.9411 54.5234C42.9428 64.4626 48 77.9432 48 91.9998C48 106.056 42.9428 119.537 33.9411 129.477C24.9393 139.416 12.7304 145 0 145V91.9998V39Z" fill="#CF1A23"/>
<path d="M0 92L24.957 22L48 39.2305L0 92Z" fill="white"/>
</svg>
