<?xml version="1.0" standalone="no"?>
<!DOCTYPE svg PUBLIC "-//W3C//DTD SVG 20010904//EN"
    "http://www.w3.org/TR/2001/REC-SVG-20010904/DTD/svg10.dtd">
<svg version="1.0" xmlns="http://www.w3.org/2000/svg"
 width="1280.000000pt" height="1136.000000pt" viewBox="0 0 1280.000000 1136.000000"
 preserveAspectRatio="xMidYMid meet">

<g transform="translate(0.000000,1136.000000) scale(0.100000,-0.100000)"
fill="#000000" stroke="none">
<path d="M5718 9351 c-75 -30 -182 -107 -248 -178 -119 -130 -151 -245 -130
-464 11 -116 11 -128 -5 -153 -26 -40 -16 -166 20 -243 15 -32 36 -89 46 -127
63 -221 201 -404 368 -488 62 -31 73 -33 167 -33 97 0 104 1 176 38 95 48 202
145 264 239 49 75 113 218 114 253 0 11 11 41 25 67 48 91 70 228 46 290 -7
20 -6 45 4 95 43 204 -8 398 -136 517 -72 67 -215 131 -388 175 -146 37 -249
40 -323 12z"/>
<path d="M4305 8902 c-78 -27 -144 -70 -211 -136 -110 -111 -144 -221 -125
-402 9 -92 9 -108 -6 -130 -21 -33 -12 -136 18 -202 11 -26 30 -78 41 -117 48
-173 169 -330 305 -397 58 -28 77 -33 143 -32 63 0 85 5 140 31 137 67 253
207 305 369 16 49 34 98 41 109 26 42 46 136 40 188 -3 29 -6 59 -7 67 -1 8 3
53 9 98 22 163 -21 308 -116 393 -74 66 -230 131 -394 164 -97 19 -121 19
-183 -3z"/>
<path d="M8925 8548 c-38 -33 -97 -83 -130 -112 -68 -59 -363 -350 -451 -446
-68 -74 -212 -240 -329 -380 -82 -97 -131 -158 -269 -333 -43 -54 -79 -97 -80
-95 -325 418 -619 723 -898 932 l-38 28 -19 -43 c-16 -39 -88 -195 -321 -698
l-67 -145 106 -70 c239 -160 909 -674 1166 -894 33 -29 64 -52 68 -52 4 0 10
8 14 18 19 54 204 474 278 632 292 624 672 1256 1000 1663 26 31 45 57 43 57
-2 -1 -34 -28 -73 -62z"/>
<path d="M3075 8206 c-57 -18 -113 -56 -162 -108 -71 -78 -78 -98 -80 -238 -2
-69 -6 -145 -9 -170 -4 -30 0 -60 11 -90 9 -25 24 -70 34 -100 79 -244 263
-367 428 -285 71 36 147 115 188 198 19 38 35 76 35 84 0 7 9 31 19 51 25 49
39 129 30 165 -4 15 -3 57 3 94 19 109 -12 214 -81 280 -84 80 -325 149 -416
119z"/>
<path d="M8769 7997 c-97 -147 -145 -224 -251 -402 -196 -329 -426 -798 -644
-1313 l-103 -244 27 -24 c15 -13 30 -24 34 -24 4 0 111 120 240 268 355 408
601 690 976 1119 189 216 344 396 345 400 5 19 -328 267 -483 360 l-35 22
-106 -162z"/>
<path d="M9489 7682 c-2 -6 -24 -32 -49 -59 -25 -26 -192 -210 -370 -408 -178
-198 -363 -403 -411 -455 -47 -52 -157 -174 -244 -270 -87 -96 -193 -213 -235
-260 -195 -215 -270 -301 -270 -306 0 -3 24 -34 53 -68 28 -35 61 -75 72 -90
l20 -27 400 270 c324 218 1549 1039 1564 1048 6 4 -65 109 -137 203 -133 172
-386 443 -393 422z"/>
<path d="M5465 7643 c-67 -47 -182 -101 -339 -159 -194 -72 -221 -99 -280
-278 -68 -201 -155 -552 -177 -713 -11 -77 -11 -82 10 -112 13 -17 35 -38 51
-46 64 -33 555 -144 815 -184 376 -58 576 -49 1165 54 140 24 293 49 340 56
115 16 180 51 180 97 0 15 -618 492 -806 622 -12 8 -49 35 -83 58 -35 24 -89
57 -120 73 -74 36 -100 81 -83 144 6 22 9 41 8 43 -2 1 -18 -4 -37 -12 -212
-87 -470 63 -573 335 l-21 56 -50 -34z"/>
<path d="M4068 7466 c-58 -39 -154 -84 -293 -137 -153 -59 -170 -77 -224 -243
-47 -144 -123 -450 -142 -568 -19 -123 -4 -136 217 -192 158 -39 330 -75 519
-107 105 -18 171 -23 345 -23 118 0 224 3 234 7 17 7 12 11 -30 31 -58 28
-107 76 -129 130 -18 42 -16 70 12 226 29 166 145 612 168 650 11 18 -4 11
-49 -24 -61 -46 -107 -61 -196 -60 -60 0 -87 5 -135 27 -97 45 -180 139 -229
261 l-22 53 -46 -31z"/>
<path d="M2860 7124 c-36 -18 -101 -46 -144 -61 -109 -39 -127 -59 -166 -178
-41 -128 -87 -320 -96 -394 -6 -55 -5 -60 17 -74 44 -27 339 -93 554 -123 88
-12 153 -15 244 -10 69 4 127 9 130 11 3 3 -5 12 -17 21 -31 22 -72 96 -72
131 0 66 65 366 127 583 6 21 2 19 -28 -14 -74 -85 -205 -111 -305 -61 -61 30
-114 84 -151 151 l-28 52 -65 -34z"/>
<path d="M9984 6877 c-61 -40 -258 -166 -437 -282 -180 -115 -404 -259 -497
-320 -93 -60 -344 -222 -558 -360 l-388 -250 50 -108 c43 -92 54 -108 71 -104
19 4 235 78 1195 407 212 73 527 180 700 238 173 57 317 107 319 109 7 5 -36
125 -91 253 -42 99 -228 462 -247 482 -3 4 -56 -25 -117 -65z"/>
<path d="M10320 6024 c-91 -29 -379 -120 -640 -204 -261 -83 -581 -185 -710
-227 -129 -41 -347 -111 -485 -155 -137 -44 -251 -81 -252 -82 -2 -1 2 -17 7
-35 5 -19 12 -59 15 -90 11 -119 16 -127 65 -109 8 3 177 15 375 27 198 12
668 41 1045 66 377 24 731 47 788 51 l102 6 0 32 c0 111 -50 399 -108 627
l-37 146 -165 -53z"/>
<path d="M4840 5919 c-30 -5 -58 -13 -63 -18 -4 -4 27 -141 69 -304 l77 -297
29 0 28 0 0 315 0 315 -42 -1 c-24 -1 -68 -5 -98 -10z"/>
<path d="M5017 5894 c-4 -22 -7 -163 -7 -315 l0 -277 28 -5 c15 -3 30 -2 33 1
7 8 149 580 149 598 0 13 -32 20 -131 30 l-66 6 -6 -38z"/>
<path d="M4632 5856 c-46 -19 -86 -36 -89 -40 -7 -7 19 -56 175 -331 112 -198
120 -210 147 -208 15 1 29 4 31 5 6 7 -163 602 -172 605 -5 1 -46 -13 -92 -31z"/>
<path d="M5256 5873 c-7 -25 -88 -325 -126 -467 -26 -96 -29 -120 -18 -127 39
-25 43 -20 305 458 19 35 33 68 31 74 -4 11 -152 78 -175 79 -6 0 -14 -8 -17
-17z"/>
<path d="M2332 5818 l3 -33 97 -3 c67 -2 100 -7 108 -16 8 -11 12 -219 13
-764 2 -744 2 -751 -19 -779 -27 -37 -80 -62 -146 -70 -56 -6 -68 -15 -68 -50
l0 -23 280 0 280 0 0 34 0 33 -66 6 c-88 8 -152 40 -170 83 -12 27 -14 165
-14 781 0 446 4 743 9 738 5 -6 104 -334 221 -730 117 -396 223 -758 237 -805
14 -47 28 -96 32 -110 6 -20 15 -26 44 -28 35 -3 36 -2 47 40 40 149 451 1572
455 1576 8 8 4 -1449 -4 -1477 -13 -47 -54 -66 -152 -69 l-89 -4 0 -34 0 -34
365 0 365 0 0 35 0 35 -69 0 c-91 0 -127 13 -140 52 -8 21 -11 275 -11 789 l0
759 23 15 c14 9 60 18 115 21 l92 7 0 28 0 29 -263 0 -263 0 -68 -232 c-38
-128 -110 -372 -161 -543 -51 -170 -108 -361 -126 -422 -18 -62 -36 -113 -39
-113 -3 0 -15 37 -28 83 -12 45 -62 217 -110 382 -49 165 -124 423 -168 572
l-79 273 -268 0 -268 0 3 -32z"/>
<path d="M5830 5820 l0 -30 100 0 c94 0 103 -2 126 -25 l24 -24 -2 -777 -3
-776 -24 -19 c-19 -16 -40 -19 -122 -19 l-99 0 0 -35 0 -35 365 0 365 0 0 35
0 35 -84 0 c-56 0 -87 4 -94 13 -8 9 75 202 324 752 184 407 337 742 340 744
2 3 3 -319 2 -715 -4 -867 11 -794 -154 -794 l-84 0 0 -35 0 -35 355 0 355 0
0 35 0 35 -83 0 c-91 0 -117 11 -142 60 -13 25 -15 130 -15 754 0 454 4 734
10 751 5 14 22 37 36 50 24 22 36 25 110 25 l84 0 0 30 0 30 -355 0 -355 0 0
-30 0 -29 97 -3 c116 -4 119 -8 77 -101 -148 -335 -475 -1045 -587 -1277 l-65
-135 -1 727 -1 727 24 28 c23 26 30 28 115 31 l91 4 0 29 0 29 -365 0 -365 0
0 -30z"/>
<path d="M4440 5750 c-30 -21 -66 -50 -79 -64 l-25 -26 45 -48 c205 -214 384
-392 394 -392 7 0 19 8 27 18 14 16 3 38 -137 275 -83 142 -156 262 -161 266
-5 5 -32 -7 -64 -29z"/>
<path d="M5483 5778 c-5 -7 -37 -60 -70 -118 -33 -58 -100 -172 -147 -254 -48
-82 -85 -155 -82 -162 3 -7 13 -17 23 -23 16 -8 45 17 199 177 99 103 196 205
216 227 l37 41 -57 45 c-88 71 -107 82 -119 67z"/>
<path d="M4279 5603 c-28 -31 -99 -128 -99 -136 0 -4 57 -39 409 -248 l124
-73 19 24 20 24 -219 218 c-120 119 -221 217 -224 217 -3 1 -17 -11 -30 -26z"/>
<path d="M5465 5415 c-115 -119 -211 -217 -213 -219 -6 -8 19 -46 30 -46 14 0
528 310 528 319 0 18 -115 161 -129 161 -4 0 -100 -97 -216 -215z"/>
<path d="M4150 5415 c-18 -22 -71 -178 -63 -185 16 -15 585 -162 593 -154 4 5
10 18 14 29 5 17 -29 40 -264 171 -211 119 -272 149 -280 139z"/>
<path d="M5795 5412 c-16 -10 -73 -43 -125 -74 -52 -30 -159 -92 -236 -137
l-142 -82 11 -30 c7 -16 16 -28 22 -25 18 6 573 166 579 166 13 0 4 36 -30
116 -20 46 -39 84 -43 84 -3 0 -19 -9 -36 -18z"/>
<path d="M5602 5112 c-249 -67 -283 -78 -279 -94 5 -17 -9 -18 -244 -18 l-249
0 0 -35 0 -35 248 0 c248 0 249 0 248 -21 -1 -20 21 -27 284 -95 157 -41 292
-74 301 -74 19 0 27 30 36 138 l6 72 -307 0 c-265 0 -306 2 -306 15 0 13 41
15 306 15 l307 0 -6 73 c-10 116 -16 137 -41 136 -11 0 -148 -35 -304 -77z"/>
<path d="M10375 5125 c-137 -7 -351 -18 -475 -24 -1197 -58 -1511 -72 -1547
-69 -39 3 -43 1 -61 -32 -13 -23 -22 -66 -26 -122 -7 -85 -6 -87 16 -93 31 -7
526 -109 713 -146 83 -17 471 -96 863 -175 393 -80 716 -144 718 -141 2 2 13
62 24 133 29 195 53 686 33 683 -5 -1 -120 -7 -258 -14z"/>
<path d="M4605 4845 c-49 -16 -423 -123 -483 -138 -40 -10 -43 -13 -37 -36 8
-34 72 -171 80 -171 4 0 93 50 198 112 106 61 224 129 262 151 39 22 71 41 73
42 1 1 -2 14 -7 29 -12 29 -26 31 -86 11z"/>
<path d="M5301 4834 c-6 -15 -10 -28 -9 -29 21 -21 543 -304 549 -298 8 8 79
186 76 189 -3 3 -592 164 -598 164 -3 0 -11 -12 -18 -26z"/>
<path d="M4445 4623 c-143 -86 -262 -157 -264 -159 -6 -6 48 -83 90 -129 l39
-43 220 222 c200 202 218 223 206 240 -7 11 -17 21 -22 23 -5 1 -126 -68 -269
-154z"/>
<path d="M5257 4756 c-15 -23 -13 -26 202 -240 120 -119 222 -216 228 -216 16
0 123 142 123 163 0 5 -37 27 -330 200 -74 44 -149 88 -166 98 -39 24 -39 24
-57 -5z"/>
<path d="M4551 4490 l-214 -221 34 -35 c19 -19 56 -49 83 -66 47 -31 49 -31
62 -13 8 10 78 131 156 268 143 254 152 276 106 285 -8 1 -109 -96 -227 -218z"/>
<path d="M5198 4699 c-10 -5 -18 -15 -18 -21 0 -10 280 -495 303 -525 12 -16
62 11 132 72 l50 44 -220 220 c-120 122 -222 221 -225 221 -3 0 -13 -5 -22
-11z"/>
<path d="M8225 4668 c-4 -18 -21 -66 -37 -107 -16 -40 -27 -78 -25 -84 1 -5
477 -247 1057 -537 l1055 -528 19 37 c40 76 107 247 154 393 57 175 99 334 91
342 -3 3 -178 44 -390 91 -211 47 -463 103 -559 125 -240 54 -1350 300 -1355
300 -2 0 -7 -15 -10 -32z"/>
<path d="M4746 4497 c-183 -330 -208 -379 -199 -386 14 -13 129 -61 159 -67
l29 -6 59 219 c100 372 102 383 86 393 -33 21 -47 6 -134 -153z"/>
<path d="M5118 4653 c-10 -2 -18 -12 -18 -21 0 -15 33 -134 132 -480 l32 -114
29 6 c34 7 162 68 162 77 0 17 -301 538 -310 538 -5 -1 -18 -3 -27 -6z"/>
<path d="M4911 4593 c-45 -172 -141 -566 -138 -569 8 -8 113 -24 158 -24 l49
0 0 315 0 315 -30 0 c-25 0 -31 -5 -39 -37z"/>
<path d="M5010 4467 c0 -90 3 -232 7 -315 l6 -152 34 0 c19 0 65 5 104 11 56
10 68 15 65 28 -3 9 -33 122 -66 251 -97 370 -86 340 -120 340 l-30 0 0 -163z"/>
<path d="M8062 4322 c-23 -37 -52 -79 -64 -94 -18 -23 -19 -29 -7 -40 17 -17
389 -349 803 -717 315 -280 489 -435 775 -691 95 -85 178 -155 184 -155 17 0
135 149 228 287 83 124 229 363 229 376 0 4 -114 67 -252 140 -139 73 -302
158 -363 190 -60 32 -177 93 -260 137 -82 43 -325 170 -540 283 -214 112 -453
238 -531 278 -77 41 -145 74 -150 74 -5 -1 -28 -31 -52 -68z"/>
<path d="M7906 4121 c-4 -5 -41 -38 -84 -72 -42 -34 -78 -65 -80 -70 -4 -9
-22 19 636 -979 253 -383 605 -919 636 -969 15 -23 31 -41 36 -39 23 7 197
137 277 205 109 92 335 314 331 324 -2 4 -43 44 -93 90 -49 45 -139 129 -200
184 -60 56 -204 189 -320 295 -365 336 -438 403 -520 480 -203 189 -565 522
-588 540 -14 11 -28 16 -31 11z"/>
<path d="M4300 3715 l0 -55 61 0 60 0 -3 53 -3 52 -57 3 -58 3 0 -56z"/>
<path d="M4510 3715 l0 -55 60 0 60 0 0 55 0 55 -60 0 -60 0 0 -55z"/>
<path d="M2162 3283 l3 -308 70 0 70 0 3 258 2 257 140 0 140 0 2 -257 3 -258
67 -3 c63 -3 67 -2 70 20 2 13 2 152 0 311 l-3 287 -284 0 -285 0 2 -307z"/>
<path d="M2862 3283 l3 -308 70 0 70 0 3 118 3 117 152 0 c125 0 158 3 187 18
51 25 70 70 70 167 0 95 -18 140 -70 170 -32 18 -55 20 -263 23 l-227 4 2
-309z m391 198 c13 -10 17 -31 17 -87 0 -92 -3 -94 -149 -94 l-111 0 0 101 0
101 113 -3 c77 -3 119 -8 130 -18z"/>
<path d="M3515 3577 c-3 -7 -4 -145 -3 -307 l3 -295 67 -2 c80 -2 54 -27 228
230 69 103 127 186 130 187 3 0 5 -93 5 -207 l0 -208 70 0 70 0 0 305 0 305
-67 3 -67 3 -31 -43 c-17 -23 -81 -118 -143 -210 -62 -92 -114 -167 -117 -168
-3 0 -4 85 -3 189 1 104 -1 198 -4 210 -5 19 -13 21 -69 21 -43 0 -66 -4 -69
-13z"/>
<path d="M4212 3283 l3 -308 253 -3 252 -2 0 45 0 45 -180 0 -180 0 0 95 0 95
166 0 165 0 -3 38 -3 37 -162 3 -163 2 0 85 0 85 181 0 180 0 -3 43 -3 42
-253 3 -252 2 2 -307z"/>
<path d="M4820 3285 l0 -305 24 -6 c14 -3 42 -3 63 0 21 3 41 5 46 6 4 0 7
105 8 233 0 127 3 225 6 217 3 -8 39 -112 80 -230 41 -118 79 -218 86 -222 7
-4 41 -7 76 -5 l63 2 82 234 81 234 5 -234 5 -234 65 0 65 0 0 305 0 305 -101
3 -102 3 -30 -83 c-16 -46 -54 -154 -83 -240 -30 -87 -56 -158 -59 -158 -3 0
-43 108 -89 240 l-83 240 -104 0 -104 0 0 -305z"/>
<path d="M5705 3577 c-3 -7 -4 -145 -3 -307 l3 -295 70 0 70 0 3 133 3 132
139 0 140 0 0 -135 0 -135 70 0 c63 0 70 2 70 20 0 11 0 142 0 290 0 149 0
279 0 290 0 18 -7 20 -70 20 l-69 0 -3 -127 -3 -128 -137 0 -138 -1 0 128 0
128 -70 0 c-48 0 -72 -4 -75 -13z"/>
<path d="M6577 3578 c-96 -235 -237 -590 -237 -598 0 -7 25 -10 72 -8 l73 3
34 83 34 82 132 0 132 0 33 -85 33 -84 73 0 c41 0 74 4 74 7 0 4 -54 143 -121
310 l-122 302 -102 0 c-73 0 -104 -4 -108 -12z m201 -343 c-3 -3 -48 -4 -101
-3 l-95 3 51 128 51 128 50 -125 c27 -69 47 -128 44 -131z"/>
<path d="M7208 3581 c-85 -17 -118 -67 -118 -181 0 -86 18 -133 60 -155 37
-19 37 -21 -31 -157 -27 -54 -49 -101 -49 -106 0 -4 34 -9 75 -10 l76 -3 28
63 c16 35 39 91 52 126 l24 62 90 -2 90 -3 2 -100 c1 -55 2 -110 3 -123 0 -22
3 -23 68 -20 l67 3 3 308 2 307 -202 -1 c-112 -1 -219 -5 -240 -8z m294 -98
c8 -31 10 -132 3 -153 -6 -18 -15 -20 -120 -20 -137 0 -145 5 -145 89 0 61 12
86 45 94 11 3 63 5 116 6 84 1 97 -1 101 -16z"/>
<path d="M2995 2716 c-99 -28 -119 -81 -119 -321 -1 -187 9 -227 65 -268 51
-37 372 -41 444 -6 48 24 65 57 76 154 13 112 3 294 -20 355 -13 35 -26 50
-61 70 -41 23 -57 25 -190 27 -100 2 -160 -2 -195 -11z m289 -109 c21 -21 25
-38 31 -122 8 -107 1 -225 -16 -256 -15 -28 -50 -39 -128 -39 -88 0 -129 14
-139 48 -9 35 -9 299 1 334 14 51 30 58 133 58 86 0 97 -2 118 -23z"/>
<path d="M5305 2721 c-80 -21 -112 -70 -127 -195 -10 -86 -3 -268 12 -327 12
-43 42 -73 92 -88 41 -13 305 -15 373 -3 38 7 40 9 43 49 l3 42 -166 -2 c-162
-2 -167 -1 -185 21 -25 31 -35 153 -23 276 14 139 12 137 207 135 l151 -1 3
40 c2 31 -1 41 -15 46 -27 11 -333 17 -368 7z"/>
<path d="M5905 2719 c-58 -14 -102 -61 -116 -123 -6 -31 -10 -118 -7 -221 4
-198 12 -224 81 -256 36 -16 65 -18 207 -18 91 1 179 4 195 8 27 5 30 10 33
50 l3 43 -133 -7 c-146 -7 -210 2 -228 35 -5 10 -10 88 -10 175 0 170 10 210
53 220 13 4 87 5 165 3 l142 -3 0 41 c0 31 -5 44 -17 49 -30 11 -325 15 -368
4z"/>
<path d="M2210 2415 l0 -305 75 0 75 0 0 130 0 130 48 -1 47 0 98 -130 98
-129 86 0 c67 0 83 3 76 13 -6 6 -58 73 -117 148 -58 75 -106 141 -106 146 0
9 30 50 141 193 36 47 69 91 73 98 5 9 -12 12 -76 12 l-83 0 -94 -125 -94
-125 -48 0 -49 0 0 125 0 125 -75 0 -75 0 0 -305z"/>
<path d="M3590 2415 l0 -305 65 0 65 0 2 238 3 237 54 -155 c30 -85 67 -192
84 -238 l29 -83 75 3 76 3 81 232 81 232 3 -235 2 -234 65 0 65 0 0 305 0 306
-101 -3 -101 -3 -84 -233 c-45 -129 -84 -236 -86 -238 -4 -3 -99 262 -156 434
l-14 42 -104 0 -104 0 0 -305z"/>
<path d="M4480 2415 l0 -305 73 0 72 1 102 152 c56 84 120 178 142 211 l41 59
0 -212 0 -211 70 0 70 0 0 305 0 305 -70 0 -69 0 -143 -210 -143 -210 -3 210
-2 210 -70 0 -70 0 0 -305z"/>
<path d="M6390 2415 l0 -305 73 0 72 0 140 208 140 207 3 -208 2 -207 70 0 70
0 0 305 0 305 -68 0 -69 0 -99 -145 c-54 -80 -120 -176 -146 -212 l-48 -67 0
212 0 212 -70 0 -70 0 0 -305z"/>
<path d="M7196 2709 c-75 -18 -106 -68 -106 -171 0 -93 15 -136 56 -160 19
-11 34 -22 34 -24 0 -2 -25 -56 -55 -120 -30 -64 -55 -119 -55 -120 0 -2 36
-4 79 -4 l79 0 48 120 49 120 93 0 93 0 -2 -117 -3 -118 72 -3 72 -3 0 306 0
305 -207 -1 c-115 -1 -226 -5 -247 -10z m309 -174 l0 -90 -109 -3 c-142 -4
-156 4 -156 88 0 93 13 101 153 98 l112 -3 0 -90z"/>
</g>
</svg>
